<svg width="62" height="62" viewBox="0 0 62 62" fill="none" xmlns="http://www.w3.org/2000/svg">
<rect x="9.5871" y="6" width="49" height="48" rx="7" fill="#C7E7D8"/>
<path fill-rule="evenodd" clip-rule="evenodd" d="M23.1195 53.7013L23.1078 53.6931L23.0119 53.6606L22.9902 53.6461L22.9812 53.6298L22.9486 53.534C22.942 53.5213 22.9333 53.5156 22.9224 53.5168L22.9098 53.5222L22.5074 53.8938L22.4939 53.9164L22.4912 53.9372L22.5183 54.0982L22.5282 54.1153L22.5427 54.1226L22.7036 54.1497L22.7289 54.1461L22.7479 54.1343L23.1186 53.7329C23.1259 53.7208 23.1262 53.7103 23.1195 53.7013ZM23.4613 53.8387L23.4477 53.8287L23.1964 53.7456L23.1783 53.7456L23.1656 53.7528L22.7931 54.1578L22.7868 54.1732L22.7877 54.1868L22.8854 54.4526C22.8938 54.467 22.9049 54.4734 22.9188 54.4716L22.9351 54.4625L23.4595 53.8767C23.4673 53.8628 23.4679 53.8501 23.4613 53.8387ZM22.813 53.1941C22.8115 53.1877 22.8075 53.1821 22.8019 53.1786C22.7964 53.175 22.7897 53.1738 22.7832 53.1751L22.7651 53.1823L22.1792 53.7067C22.169 53.7181 22.1669 53.7305 22.1729 53.7438L22.1883 53.7555L22.4541 53.8531L22.4704 53.855L22.4839 53.8486L22.8881 53.4752L22.8962 53.4617V53.4436L22.813 53.1941Z" fill="#F6F6F6"/>
<path d="M34.9448 29.3906L24.5676 27.5625V41.0709C24.5674 41.2178 24.5963 41.3632 24.6525 41.4988C24.7087 41.6345 24.7911 41.7577 24.895 41.8614C24.9989 41.9651 25.1223 42.0473 25.258 42.1033C25.3937 42.1593 25.5392 42.1879 25.686 42.1875H43.5923C43.7392 42.1881 43.8849 42.1597 44.0208 42.1038C44.1568 42.048 44.2804 41.9658 44.3845 41.8621C44.4886 41.7583 44.5712 41.635 44.6275 41.4992C44.6838 41.3635 44.7127 41.2179 44.7126 41.0709V36.0937L34.9448 29.3906Z" fill="#185C37"/>
<path d="M34.9448 17.8125H25.686C25.5392 17.8121 25.3937 17.8407 25.258 17.8967C25.1223 17.9527 24.9989 18.0349 24.895 18.1386C24.7911 18.2423 24.7087 18.3656 24.6525 18.5012C24.5963 18.6368 24.5674 18.7822 24.5676 18.9291V23.9063L34.9448 30L40.4394 31.8281L44.7126 30V23.9063L34.9448 17.8125Z" fill="#21A366"/>
<path d="M24.5676 23.9062H34.9448V30H24.5676V23.9062Z" fill="#107C41"/>
<path opacity="0.1" d="M31.9944 22.6875H24.5676V37.9219H31.9944C32.2904 37.9204 32.5738 37.8024 32.7833 37.5934C32.9929 37.3844 33.1116 37.1012 33.1138 36.8053V23.8041C33.1116 23.5081 32.9929 23.225 32.7833 23.016C32.5738 22.807 32.2904 22.689 31.9944 22.6875Z" fill="black"/>
<path opacity="0.2" d="M31.3841 23.2969H24.5676V38.5312H31.3841C31.6801 38.5298 31.9635 38.4118 32.173 38.2028C32.3826 37.9938 32.5013 37.7106 32.5035 37.4147V24.4134C32.5013 24.1175 32.3826 23.8344 32.173 23.6254C31.9635 23.4164 31.6801 23.2983 31.3841 23.2969Z" fill="black"/>
<path opacity="0.2" d="M31.3841 23.2969H24.5676V37.3125H31.3841C31.6801 37.311 31.9635 37.193 32.173 36.984C32.3826 36.775 32.5013 36.4919 32.5035 36.1959V24.4134C32.5013 24.1175 32.3826 23.8344 32.173 23.6254C31.9635 23.4164 31.6801 23.2983 31.3841 23.2969Z" fill="black"/>
<path opacity="0.2" d="M30.7738 23.2969H24.5676V37.3125H30.7738C31.0698 37.311 31.3532 37.193 31.5627 36.984C31.7722 36.775 31.891 36.4919 31.8932 36.1959V24.4134C31.891 24.1175 31.7722 23.8344 31.5627 23.6254C31.3532 23.4164 31.0698 23.2983 30.7738 23.2969Z" fill="black"/>
<path d="M19.5815 23.2969H30.7734C31.0698 23.2966 31.3543 23.4141 31.5641 23.6235C31.774 23.8328 31.8922 24.117 31.8927 24.4134V35.5866C31.8922 35.883 31.774 36.1672 31.5641 36.3765C31.3543 36.5859 31.0698 36.7034 30.7734 36.7031H19.5815C19.4346 36.7036 19.289 36.6751 19.1532 36.6192C19.0173 36.5633 18.8939 36.4811 18.7899 36.3774C18.6858 36.2736 18.6034 36.1504 18.5471 36.0147C18.4909 35.8789 18.462 35.7335 18.4621 35.5866V24.4134C18.462 24.2665 18.4909 24.1211 18.5471 23.9854C18.6034 23.8496 18.6858 23.7264 18.7899 23.6226C18.8939 23.5189 19.0173 23.4367 19.1532 23.3808C19.289 23.3249 19.4346 23.2964 19.5815 23.2969Z" fill="url(#paint0_linear_0_1)"/>
<path d="M21.9309 33.631L24.2849 29.9898L22.1287 26.3691H23.8602L25.0368 28.6876C25.1455 28.907 25.2243 29.0701 25.2599 29.1788H25.2759C25.3527 29.0032 25.434 28.8326 25.5196 28.667L26.7777 26.3729H28.3715L26.1599 29.9729L28.4277 33.6338H26.7318L25.3724 31.0923C25.3095 30.9829 25.2559 30.8684 25.2121 30.7501H25.1896C25.1499 30.8654 25.097 30.9758 25.0321 31.0791L23.6324 33.631H21.9309Z" fill="#F6F6F6"/>
<path d="M43.5949 17.8125H34.9465V23.9063H44.7143V18.9291C44.7144 18.7822 44.6855 18.6367 44.6293 18.501C44.573 18.3653 44.4905 18.242 44.3865 18.1383C44.2825 18.0345 44.1591 17.9523 44.0232 17.8964C43.8874 17.8405 43.7418 17.812 43.5949 17.8125Z" fill="#33C481"/>
<path d="M34.9465 30H44.7143V36.0937H34.9465V30Z" fill="#107C41"/>
<defs>
<linearGradient id="paint0_linear_0_1" x1="20.8002" y1="22.4194" x2="29.5546" y2="37.5806" gradientUnits="userSpaceOnUse">
<stop stop-color="#18884F"/>
<stop offset="0.5" stop-color="#117E43"/>
<stop offset="1" stop-color="#0B6631"/>
</linearGradient>
</defs>
</svg>
