<svg width="31" height="28" viewBox="0 0 31 28" fill="none" xmlns="http://www.w3.org/2000/svg">
<path d="M21.3668 28C20.9035 27.9992 20.4507 27.8624 20.0644 27.6066L14.2851 23.7537H11.7211C11.5666 23.7528 11.4144 23.717 11.2757 23.6488C11.1371 23.5807 11.0157 23.482 10.9207 23.3603C10.8268 23.236 10.7622 23.0922 10.7317 22.9395C10.7012 22.7868 10.7055 22.6293 10.7443 22.4785C10.8266 22.1502 10.8676 21.813 10.8664 21.4746C10.8639 20.386 10.4579 19.3371 9.72681 18.5306C9.32446 18.0813 8.83405 17.7195 8.28602 17.4676C7.73798 17.2157 7.14403 17.0792 6.54102 17.0665C5.93802 17.0538 5.33883 17.1651 4.78067 17.3937C4.2225 17.6222 3.71726 17.963 3.29632 18.395C3.17033 18.5284 3.00985 18.6244 2.83266 18.6723C2.65547 18.7202 2.46849 18.7181 2.29241 18.6663C2.11636 18.614 1.95719 18.5163 1.83096 18.3829C1.70472 18.2495 1.61588 18.0852 1.57339 17.9066C1.43302 17.265 1.36476 16.6098 1.36989 15.953V7.81316C1.30936 6.77294 1.46967 5.73167 1.84028 4.75782C2.21089 3.78397 2.78341 2.89958 3.52021 2.16278C4.257 1.42599 5.14139 0.853468 6.11524 0.482858C7.0891 0.112248 8.13036 -0.04806 9.17058 0.0124706H22.737C23.7772 -0.04806 24.8185 0.112248 25.7923 0.482858C26.7662 0.853468 27.6506 1.42599 28.3874 2.16278C29.1242 2.89958 29.6967 3.78397 30.0673 4.75782C30.4379 5.73167 30.5982 6.77294 30.5377 7.81316V15.953C30.5715 16.9911 30.3969 18.0253 30.024 18.9947C29.6512 19.9641 29.0878 20.8488 28.3671 21.5967C27.1207 22.8125 25.4897 23.556 23.7545 23.6994V25.6259C23.7533 26.0576 23.6354 26.4809 23.4133 26.851C23.1912 27.2212 22.8731 27.5245 22.4928 27.7287C22.1427 27.9029 21.7578 27.9956 21.3668 28ZM12.8878 21.7052H14.5836C14.7873 21.7029 14.9866 21.7646 15.1534 21.8815L21.1904 25.9108C21.2394 25.946 21.2977 25.9661 21.358 25.9685C21.4183 25.9709 21.478 25.9556 21.5296 25.9243C21.5874 25.8955 21.6359 25.8509 21.6695 25.7957C21.7031 25.7405 21.7205 25.6769 21.7195 25.6123V22.7227C21.7213 22.4534 21.8291 22.1956 22.0195 22.0052C22.2099 21.8147 22.4677 21.707 22.737 21.7052C23.5044 21.7372 24.2705 21.6157 24.9903 21.3478C25.7101 21.0799 26.3693 20.671 26.929 20.145C27.4587 19.5845 27.8709 18.9237 28.1411 18.2014C28.4114 17.4791 28.5344 16.71 28.5027 15.9395V7.7996C28.5562 7.02866 28.4437 6.25522 28.1728 5.53146C27.902 4.80769 27.4791 4.15042 26.9326 3.60397C26.3862 3.05753 25.7289 2.63462 25.0051 2.36377C24.2814 2.09292 23.5079 1.98042 22.737 2.03387H9.17058C8.39965 1.98042 7.62621 2.09292 6.90244 2.36377C6.17867 2.63462 5.5214 3.05753 4.97496 3.60397C4.42852 4.15042 4.00561 4.80769 3.73476 5.53146C3.4639 6.25522 3.35141 7.02866 3.40486 7.7996V15.7767C4.34274 15.272 5.39228 15.0108 6.4573 15.0169C7.36191 15.0141 8.25678 15.2037 9.08246 15.5733C9.90815 15.9428 10.6457 16.4839 11.2462 17.1604C12.3083 18.3415 12.8975 19.8727 12.9014 21.461C12.8901 21.5419 12.8855 21.6235 12.8878 21.7052Z" fill="white" fill-opacity="0.7"/>
<path d="M6.44393 27.9038C4.8524 27.9038 3.3184 27.3086 2.14338 26.2351C1.65842 25.8173 1.24587 25.3223 0.922397 24.7699C0.189574 23.5532 -0.119994 22.1282 0.0419734 20.7171C0.203941 19.3061 0.828338 17.9883 1.81778 16.9692C2.43303 16.3354 3.17215 15.835 3.98913 15.4991C4.80611 15.1633 5.68348 14.9991 6.56663 15.0169C7.44978 15.0348 8.31981 15.2341 9.12258 15.6027C9.92536 15.9712 10.6437 16.5011 11.2329 17.1592C12.2949 18.3402 12.8842 19.8714 12.888 21.4597C12.8889 21.9731 12.8205 22.4842 12.6845 22.9792C12.5399 23.6186 12.2875 24.2287 11.9383 24.7835C11.3726 25.7362 10.5683 26.5249 9.60482 27.0721C8.64135 27.6192 7.55193 27.9059 6.44393 27.9038ZM6.44393 17.0506C5.86457 17.0494 5.29067 17.1626 4.75517 17.3837C4.21967 17.6048 3.73311 17.9296 3.32344 18.3392C2.91377 18.7489 2.58905 19.2355 2.36792 19.771C2.14678 20.3065 2.03359 20.8804 2.03484 21.4597C2.03251 22.2595 2.25332 23.0441 2.67247 23.7253C2.89069 24.1036 3.17036 24.4428 3.50002 24.7292C3.97856 25.1689 4.54903 25.4965 5.16999 25.6881C5.79095 25.8797 6.4468 25.9306 7.08988 25.8371C7.73297 25.7435 8.34715 25.5079 8.88778 25.1473C9.42842 24.7867 9.88194 24.3102 10.2154 23.7525C10.4549 23.3741 10.6249 22.956 10.7174 22.5179C10.8091 22.1773 10.8547 21.826 10.853 21.4733C10.8505 20.3848 10.4445 19.3359 9.71344 18.5294C9.30772 18.0612 8.80534 17.6866 8.2409 17.4313C7.67647 17.1761 7.0634 17.0462 6.44393 17.0506Z" fill="white" fill-opacity="0.7"/>
<path d="M8.46642 22.451H4.41006C4.14076 22.4492 3.88299 22.3414 3.69256 22.151C3.50213 21.9606 3.39436 21.7028 3.39258 21.4335C3.39436 21.1642 3.50213 20.9064 3.69256 20.716C3.88299 20.5256 4.14076 20.4178 4.41006 20.416H8.46642C8.73627 20.416 8.99507 20.5232 9.18589 20.714C9.3767 20.9048 9.4839 21.1636 9.4839 21.4335C9.4839 21.7034 9.3767 21.9622 9.18589 22.153C8.99507 22.3438 8.73627 22.451 8.46642 22.451Z" fill="white" fill-opacity="0.7"/>
<path d="M6.44522 24.5269C6.17591 24.5251 5.91814 24.4173 5.72771 24.2269C5.53728 24.0365 5.42951 23.7787 5.42773 23.5094V19.453C5.42951 19.1837 5.53728 18.926 5.72771 18.7355C5.91814 18.5451 6.17591 18.4373 6.44522 18.4355C6.71452 18.4373 6.97229 18.5451 7.16272 18.7355C7.35315 18.926 7.46092 19.1837 7.4627 19.453V23.5094C7.46288 23.6431 7.43668 23.7754 7.38561 23.899C7.33454 24.0225 7.2596 24.1347 7.16508 24.2293C7.07057 24.3238 6.95833 24.3987 6.8348 24.4498C6.71127 24.5009 6.57888 24.527 6.44522 24.5269Z" fill="white" fill-opacity="0.7"/>
<path d="M20.6878 12.9822H11.1913C10.922 12.9805 10.6642 12.8727 10.4738 12.6823C10.2834 12.4918 10.1756 12.2341 10.1738 11.9647C10.1756 11.6954 10.2834 11.4377 10.4738 11.2472C10.6642 11.0568 10.922 10.949 11.1913 10.9473H20.6878C20.9571 10.949 21.2149 11.0568 21.4053 11.2472C21.5957 11.4377 21.7035 11.6954 21.7053 11.9647C21.7035 12.2341 21.5957 12.4918 21.4053 12.6823C21.2149 12.8727 20.9571 12.9805 20.6878 12.9822Z" fill="white" fill-opacity="0.7"/>
</svg>