<svg width="32" height="32" viewBox="0 0 32 32" fill="none" xmlns="http://www.w3.org/2000/svg">
<path d="M13.3208 30.3739C12.9113 30.367 12.5092 30.2632 12.1477 30.0708C11.7861 29.8784 11.4753 29.603 11.2408 29.2672L9.64081 27.1339C9.64081 27.1472 9.57415 27.1072 9.54748 27.1072H9.05415C4.49415 27.1072 1.66748 25.8672 1.66748 19.7205V14.3872C1.66748 8.77385 5.09415 7.30719 7.97415 7.05385C8.33275 7.01445 8.6934 6.99664 9.05415 7.00052H17.5875C22.4141 7.00052 24.9741 9.56052 24.9741 14.3872V19.7205C24.9793 20.095 24.957 20.4693 24.9075 20.8405C24.6675 23.6805 23.2008 27.1072 17.5875 27.1072H17.0541L15.4008 29.2672C15.1663 29.603 14.8556 29.8784 14.494 30.0708C14.1324 30.2632 13.7303 30.367 13.3208 30.3739ZM9.05415 9.00052C8.74748 9.00052 8.45415 9.01385 8.17415 9.04052C5.08081 9.30719 3.66748 11.0005 3.66748 14.3872V19.7205C3.66748 24.2939 5.08081 25.1072 9.05415 25.1072H9.58748C9.90508 25.1173 10.2169 25.195 10.502 25.3353C10.7871 25.4755 11.039 25.6751 11.2408 25.9205L12.8408 28.0672C12.8845 28.1574 12.9527 28.2334 13.0376 28.2866C13.1225 28.3398 13.2206 28.368 13.3208 28.368C13.421 28.368 13.5192 28.3398 13.6041 28.2866C13.689 28.2334 13.7571 28.1574 13.8008 28.0672L15.4008 25.9339C15.5929 25.6767 15.8424 25.4681 16.1295 25.3245C16.4165 25.181 16.7332 25.1066 17.0541 25.1072H17.5875C20.9741 25.1072 22.6675 23.6805 22.9208 20.6405C22.9581 20.3353 22.9759 20.028 22.9741 19.7205V14.3872C22.9741 10.6672 21.3075 9.00052 17.5875 9.00052H9.05415Z" fill="white" fill-opacity="0.7"/>
<path d="M13.3211 18.9206C13.0574 18.9206 12.7996 18.8424 12.5804 18.6959C12.3611 18.5494 12.1902 18.3411 12.0893 18.0975C11.9884 17.8539 11.962 17.5858 12.0134 17.3271C12.0649 17.0685 12.1918 16.8309 12.3783 16.6444C12.5648 16.458 12.8024 16.331 13.061 16.2795C13.3196 16.2281 13.5877 16.2545 13.8314 16.3554C14.075 16.4563 14.2832 16.6272 14.4298 16.8465C14.5763 17.0657 14.6545 17.3235 14.6545 17.5872C14.6545 17.9409 14.514 18.28 14.2639 18.53C14.0139 18.7801 13.6747 18.9206 13.3211 18.9206Z" fill="white" fill-opacity="0.7"/>
<path d="M17.5872 18.9206C17.3235 18.9206 17.0657 18.8424 16.8465 18.6959C16.6272 18.5494 16.4563 18.3411 16.3554 18.0975C16.2545 17.8539 16.2281 17.5858 16.2795 17.3271C16.331 17.0685 16.458 16.8309 16.6444 16.6444C16.8309 16.458 17.0685 16.331 17.3271 16.2795C17.5858 16.2281 17.8539 16.2545 18.0975 16.3554C18.3411 16.4563 18.5494 16.6272 18.6959 16.8465C18.8424 17.0657 18.9206 17.3235 18.9206 17.5872C18.9206 17.9409 18.7801 18.28 18.53 18.53C18.28 18.7801 17.9409 18.9206 17.5872 18.9206Z" fill="white" fill-opacity="0.7"/>
<path d="M9.06624 18.9206C8.80254 18.9206 8.54475 18.8424 8.32548 18.6959C8.10622 18.5494 7.93532 18.3411 7.8344 18.0975C7.73349 17.8539 7.70708 17.5858 7.75853 17.3271C7.80998 17.0685 7.93697 16.8309 8.12344 16.6444C8.30991 16.458 8.54748 16.331 8.80612 16.2795C9.06477 16.2281 9.33285 16.2545 9.57649 16.3554C9.82012 16.4563 10.0284 16.6272 10.1749 16.8465C10.3214 17.0657 10.3996 17.3235 10.3996 17.5872C10.3996 17.9409 10.2591 18.28 10.0091 18.53C9.759 18.7801 9.41987 18.9206 9.06624 18.9206Z" fill="white" fill-opacity="0.7"/>
<path d="M23.9184 21.7179C23.7838 21.7185 23.6505 21.6916 23.5267 21.6389C23.4029 21.5861 23.2912 21.5087 23.1984 21.4112C23.0946 21.3051 23.0166 21.1766 22.9704 21.0356C22.9242 20.8946 22.9109 20.7448 22.9317 20.5979C22.9702 20.3062 22.988 20.0121 22.985 19.7179V14.3846C22.985 10.6645 21.3184 8.99788 17.5984 8.99788H9.06103C8.75436 8.99788 8.46102 9.01122 8.18103 9.03788C8.03421 9.05547 7.88533 9.04071 7.74482 8.99464C7.60432 8.94857 7.47559 8.87231 7.36769 8.77122C7.2614 8.66825 7.17888 8.54331 7.12591 8.40512C7.07294 8.26694 7.05079 8.11885 7.06102 7.97122C7.30502 5.09122 8.78503 1.66455 14.3944 1.66455H22.9277C27.7544 1.66455 30.3144 4.22455 30.3144 9.05122V14.3846C30.3144 19.9979 26.8877 21.4646 24.0077 21.7179H23.9184ZM9.22503 6.99788H17.585C22.4117 6.99788 24.9717 9.55788 24.9717 14.3846V19.5445C27.2384 18.9846 28.305 17.3179 28.305 14.3846V9.05122C28.305 5.33122 26.6384 3.66455 22.9184 3.66455H14.385C11.4517 3.66455 9.79836 4.73122 9.22503 6.99788Z" fill="white" fill-opacity="0.7"/>
</svg>