<svg width="56" height="56" viewBox="0 0 56 56" fill="none" xmlns="http://www.w3.org/2000/svg">
<rect x="3" y="4" width="49" height="48" rx="7" fill="#E7C7C8"/>
<path fill-rule="evenodd" clip-rule="evenodd" d="M17.5324 39.7013L17.5207 39.6931L17.4248 39.6606L17.4031 39.6461L17.3941 39.6298L17.3615 39.534C17.3549 39.5213 17.3462 39.5156 17.3353 39.5168L17.3227 39.5222L16.9203 39.8938L16.9068 39.9164L16.9041 39.9372L16.9312 40.0982L16.9411 40.1153L16.9556 40.1226L17.1165 40.1497L17.1418 40.1461L17.1608 40.1343L17.5315 39.7329C17.5387 39.7208 17.539 39.7103 17.5324 39.7013ZM17.8742 39.8387L17.8606 39.8287L17.6093 39.7456L17.5912 39.7456L17.5785 39.7528L17.206 40.1578L17.1997 40.1732L17.2006 40.1868L17.2983 40.4526C17.3067 40.467 17.3178 40.4734 17.3317 40.4716L17.348 40.4625L17.8724 39.8767C17.8802 39.8628 17.8808 39.8501 17.8742 39.8387ZM17.2259 39.1941C17.2244 39.1877 17.2204 39.1821 17.2148 39.1786C17.2093 39.175 17.2026 39.1738 17.1961 39.1751L17.178 39.1823L16.5921 39.7067C16.5819 39.7181 16.5798 39.7305 16.5858 39.7438L16.6012 39.7555L16.867 39.8531L16.8833 39.855L16.8968 39.8486L17.301 39.4752L17.3091 39.4617V39.4436L17.2259 39.1941Z" fill="#F6F6F6"/>
<path opacity="0.1" fill-rule="evenodd" clip-rule="evenodd" d="M33.9566 22.2055C32.1582 20.4071 29.7191 19.3968 27.1758 19.3968C24.6325 19.3968 22.1933 20.4071 20.395 22.2055C18.5966 24.0039 17.5863 26.443 17.5863 28.9863C17.5863 31.5296 18.5966 33.9687 20.395 35.7671C22.1933 37.5655 24.6325 38.5758 27.1758 38.5758C29.7191 38.5758 32.1582 37.5655 33.9566 35.7671C35.755 33.9687 36.7653 31.5296 36.7653 28.9863C36.7653 26.443 35.755 24.0039 33.9566 22.2055ZM17.6826 19.4931C22.9256 14.2502 31.426 14.2502 36.6689 19.4931C41.9119 24.7361 41.9119 33.2365 36.6689 38.4794C31.426 43.7224 22.9256 43.7224 17.6826 38.4794C12.4397 33.2365 12.4397 24.7361 17.6826 19.4931Z" fill="#F6F6F6"/>
<path fill-rule="evenodd" clip-rule="evenodd" d="M33.9533 22.2061C32.2089 20.4542 29.8523 19.448 27.3805 19.3998C26.8781 19.3801 26.4035 19.1639 26.0589 18.7978C25.7143 18.4317 25.5273 17.9449 25.5381 17.4422C25.5489 16.9395 25.7566 16.4612 26.1166 16.1102C26.4765 15.7592 26.96 15.5636 27.4627 15.5655C30.9231 15.6348 34.2219 17.0429 36.6657 19.4938C37.0253 19.8535 37.2274 20.3413 37.2274 20.85C37.2274 21.3586 37.0253 21.8465 36.6657 22.2061C36.306 22.5658 35.8182 22.7679 35.3095 22.7679C34.8008 22.7679 34.313 22.5658 33.9533 22.2061Z" fill="#F6F6F6"/>
<path d="M29.168 24.5007H35.5846L29.168 18.084V24.5007ZM21.0013 16.334H30.3346L37.3346 23.334V37.334C37.3346 37.9528 37.0888 38.5463 36.6512 38.9839C36.2136 39.4215 35.6201 39.6673 35.0013 39.6673H21.0013C20.3825 39.6673 19.789 39.4215 19.3514 38.9839C18.9138 38.5463 18.668 37.9528 18.668 37.334V18.6673C18.668 18.0485 18.9138 17.455 19.3514 17.0174C19.789 16.5798 20.3825 16.334 21.0013 16.334ZM26.753 28.514C27.2313 29.564 27.838 30.4273 28.538 31.0223L29.0163 31.3957C28.0013 31.5823 26.6013 31.909 25.1196 32.4807L24.9913 32.5273L25.5746 31.314C26.0996 30.299 26.4846 29.3773 26.753 28.514ZM34.313 32.959C34.523 32.749 34.628 32.4807 34.6396 32.189C34.6746 31.9557 34.6163 31.734 34.4996 31.5473C34.1613 30.999 33.2863 30.7423 31.8396 30.7423L30.3346 30.824L29.3196 30.1473C28.5846 29.5407 27.9196 28.479 27.453 27.1607L27.4996 26.9973C27.8846 25.4457 28.2463 23.5673 27.4763 22.7973C27.3821 22.7059 27.2707 22.634 27.1485 22.586C27.0264 22.5379 26.8959 22.5146 26.7646 22.5173H26.4846C26.053 22.5173 25.668 22.9723 25.563 23.4157C25.1313 24.9673 25.388 25.819 25.8196 27.2307V27.2423C25.528 28.269 25.1546 29.459 24.5596 30.6607L23.4396 32.7607L22.4013 33.3323C21.0013 34.2073 20.3363 35.1873 20.208 35.8057C20.1613 36.0273 20.1846 36.2257 20.2663 36.4357L20.3013 36.494L20.8613 36.8557L21.3746 36.984C22.3196 36.984 23.393 35.8756 24.8396 33.4023L25.0496 33.3207C26.2513 32.9357 27.7446 32.6673 29.7513 32.4457C30.953 33.0407 32.3646 33.309 33.2513 33.309C33.7646 33.309 34.1146 33.1807 34.313 32.959ZM33.8346 32.1307L33.9396 32.259C33.928 32.3757 33.893 32.3873 33.8346 32.4107H33.788L33.5663 32.434C33.0296 32.434 32.2013 32.2123 31.3496 31.839C31.4546 31.7223 31.5013 31.7223 31.618 31.7223C33.2513 31.7223 33.718 32.014 33.8346 32.1307ZM23.1363 33.834C22.378 35.2223 21.6896 35.9923 21.1646 36.1673C21.223 35.724 21.748 34.954 22.5763 34.1957L23.1363 33.834ZM26.6596 25.7723C26.3913 24.7223 26.3796 23.8707 26.578 23.3807L26.6596 23.2407L26.8346 23.299C27.033 23.579 27.0563 23.9523 26.9396 24.5823L26.9046 24.769L26.718 25.7257L26.6596 25.7723Z" fill="#EF5350"/>
</svg>
