<svg width="49" height="48" viewBox="0 0 49 48" fill="none" xmlns="http://www.w3.org/2000/svg">
<rect width="49" height="48" rx="7" fill="#E7C7C8"/>
<path fill-rule="evenodd" clip-rule="evenodd" d="M25.74 38.0721L25.7262 38.0746L25.6375 38.1183L25.6125 38.1233L25.595 38.1183L25.5062 38.0746C25.4929 38.0704 25.4829 38.0725 25.4762 38.0808L25.4713 38.0933L25.45 38.6283L25.4562 38.6533L25.4688 38.6696L25.5987 38.7621L25.6175 38.7671L25.6325 38.7621L25.7625 38.6696L25.7775 38.6496L25.7825 38.6283L25.7612 38.0946C25.7579 38.0812 25.7508 38.0737 25.74 38.0721ZM26.0712 37.9308L26.055 37.9333L25.8237 38.0496L25.8112 38.0621L25.8075 38.0758L25.83 38.6133L25.8362 38.6283L25.8463 38.6371L26.0975 38.7533C26.1133 38.7575 26.1254 38.7541 26.1337 38.7433L26.1387 38.7258L26.0963 37.9583C26.0921 37.9433 26.0837 37.9341 26.0712 37.9308ZM25.1775 37.9333C25.172 37.93 25.1654 37.9289 25.1591 37.9303C25.1528 37.9317 25.1473 37.9354 25.1437 37.9408L25.1362 37.9583L25.0938 38.7258C25.0946 38.7408 25.1017 38.7508 25.115 38.7558L25.1337 38.7533L25.385 38.6371L25.3975 38.6271L25.4025 38.6133L25.4237 38.0758L25.42 38.0608L25.4075 38.0483L25.1775 37.9333Z" fill="#0066FC"/>
<path fill-rule="evenodd" clip-rule="evenodd" d="M25 11.5V19.625C25 20.1223 25.1975 20.5992 25.5492 20.9508C25.9008 21.3025 26.3777 21.5 26.875 21.5H35V34C35 34.663 34.7366 35.2989 34.2678 35.7678C33.7989 36.2366 33.163 36.5 32.5 36.5H17.5C16.837 36.5 16.2011 36.2366 15.7322 35.7678C15.2634 35.2989 15 34.663 15 34V14C15 13.337 15.2634 12.7011 15.7322 12.2322C16.2011 11.7634 16.837 11.5 17.5 11.5H25ZM27.58 24.8113L26.875 26.69L26.2875 25.1238C25.8412 23.9338 24.1588 23.9338 23.7125 25.1238L23.125 26.69L22.42 24.8113C22.2976 24.5094 22.0621 24.2672 21.7638 24.1363C21.4654 24.0055 21.1278 23.9962 20.8227 24.1106C20.5177 24.225 20.2694 24.454 20.1306 24.7487C19.9919 25.0435 19.9737 25.3808 20.08 25.6887L21.8375 30.3762C22.2838 31.5662 23.9662 31.5662 24.4125 30.3762L25 28.81L25.5875 30.3762C26.0338 31.5662 27.7162 31.5662 28.1625 30.3762L29.92 25.6887C30.0263 25.3808 30.0081 25.0435 29.8694 24.7487C29.7306 24.454 29.4823 24.225 29.1773 24.1106C28.8722 23.9962 28.5346 24.0055 28.2362 24.1363C27.9379 24.2672 27.7024 24.5094 27.58 24.8113ZM27.5 11.5537C27.9736 11.6542 28.4078 11.89 28.75 12.2325L34.2675 17.75C34.61 18.0922 34.8458 18.5264 34.9463 19H27.5V11.5537Z" fill="#0066FC"/>
</svg>
